<svg xmlns="http://www.w3.org/2000/svg" width="32" height="32" viewBox="0 0 256 252">
<rect x="-10" y="-10" width="276" height="272" rx="20" fill="#2D1A54"/>
<g transform="translate(0,252) scale(0.1,-0.1)" fill="#D4A840" stroke="none">
<path d="M1290 2417 c0 -66 -42 -94 -163 -107 -96 -11 -130 -31 -135 -79 -5 -45 20 -50 62 -13 18 16 51 32 72 36 81 14 133 37 164 72 33 38 38 70 15 100 -14 18 -14 18 -15 -9z M1215 2250 c-77 -12 -131 -28 -156 -49 -21 -17 -22 -19 -6 -42 27 -37 21 -54 -43 -125 -33 -37 -59 -68 -58 -70 2 -1 60 6 128 17 144 23 329 27 414 9 71 -15 175 -60 196 -85 14 -17 13 -18 -10 -12 -48 13 -216 28 -280 25 l-65 -3 35 -17 35 -18 -35 8 c-84 17 -212 7 -325 -26 -141 -42 -217 -50 -269 -28 -62 26 -82 21 -139 -35 l-52 -50 42 20 c55 27 70 27 205 -8 160 -41 250 -47 397 -26 77 11 160 16 226 13 58 -2 105 -2 105 -1 0 1 -21 14 -47 27 -27 14 -43 25 -36 26 29 1 135 -40 177 -69 48 -33 135 -131 161 -181 17 -33 20 -102 5 -131 -6 -10 -7 -19 -2 -19 18 0 54 50 62 87 11 43 -3 146 -25 200 -8 20 -15 38 -15 40 0 14 92 -12 152 -42 74 -38 122 -44 168 -20 89 46 78 162 -18 181 -35 7 -39 -1 -17 -30 34 -46 3 -96 -60 -96 -53 1 -115 38 -205 123 -129 122 -243 182 -468 245 -53 15 -89 28 -80 30 26 5 168 -35 313 -88 105 -38 150 -50 194 -50 73 0 146 35 201 97 46 52 53 74 14 44 -35 -27 -116 -51 -174 -51 -76 0 -158 27 -286 95 -167 89 -231 104 -359 85z M783 2180 c-3 -13 -14 -20 -29 -20 -13 0 -32 -4 -42 -9 -9 -5 -25 -12 -34 -15 -14 -4 -18 -16 -18 -51 0 -61 -19 -94 -109 -193 -64 -70 -89 -90 -156 -122 -44 -21 -93 -42 -108 -46 -48 -11 -61 -73 -29 -136 15 -28 16 -35 5 -31 -13 5 -14 -9 -8 -93 6 -89 4 -107 -18 -179 -23 -72 -25 -98 -26 -250 -1 -200 12 -263 85 -409 147 -293 336 -457 645 -560 136 -45 245 -60 383 -53 256 13 438 99 670 315 77 72 137 119 178 140 61 30 62 31 28 31 -31 0 -132 -24 -185 -43 l-20 -8 20 17 c11 9 41 23 67 33 44 15 47 19 62 72 47 170 47 316 0 421 -55 123 -166 236 -284 293 -59 28 -74 31 -160 31 -77 0 -112 -6 -182 -29 -140 -45 -141 -52 -7 -61 l114 -8 -45 -14 c-142 -43 -307 -42 -482 2 -39 10 -36 -4 20 -77 111 -148 289 -207 493 -164 72 16 123 39 206 94 125 83 223 16 223 -153 0 -250 -264 -530 -570 -606 -84 -21 -239 -16 -343 10 -88 23 -89 23 -110 3 -12 -11 -33 -25 -47 -32 -23 -12 -23 -11 7 23 32 36 49 74 39 84 -3 3 -33 0 -66 -6 -34 -7 -75 -9 -93 -5 l-31 6 46 18 c48 18 118 66 118 81 0 5 -33 9 -72 9 -81 0 -152 16 -215 49 -60 30 -53 33 14 5 32 -12 59 -21 61 -19 2 2 -8 23 -22 48 -40 68 -64 148 -81 270 -32 235 -57 300 -132 344 -54 31 -82 26 -130 -25 l-35 -37 16 33 c9 18 31 42 49 54 32 21 33 22 24 67 -13 63 11 144 63 209 36 47 44 51 112 68 95 22 268 29 388 14 193 -24 191 -24 280 4 46 15 153 39 237 54 84 14 153 30 153 34 0 4 -11 19 -24 34 -23 27 -25 28 -168 32 -93 3 -176 0 -234 -9 -140 -22 -290 -17 -419 14 -171 40 -187 42 -235 17 -23 -12 -44 -19 -47 -16 -16 16 92 127 138 141 11 4 36 -1 56 -10 49 -23 140 -16 303 25 157 39 312 53 454 40 59 -5 112 -12 118 -16 6 -4 8 -3 4 4 -13 22 -122 53 -221 64 -92 11 -122 9 -331 -17 -162 -20 -241 -26 -269 -20 -40 9 -39 9 27 15 64 6 69 8 121 61 87 88 95 124 34 155 -26 14 -39 15 -83 5 -44 -10 -58 -9 -89 3 -47 20 -46 20 -52 -4z M1932 1642 c77 -82 111 -138 132 -219 23 -86 19 -99 -8 -26 -28 76 -73 146 -124 196 l-39 38 19 -73 c15 -57 19 -96 15 -178 l-4 -105 39 -25 c54 -33 122 -111 166 -187 20 -34 37 -61 38 -60 0 1 -2 36 -5 77 -3 41 -2 109 2 150 12 110 5 218 -18 264 -31 64 -120 152 -187 186 -34 16 -68 30 -76 30 -8 0 14 -31 50 -68z M1480 1601 c-47 -10 -122 -30 -168 -44 -94 -30 -140 -33 -227 -12 -33 8 -79 15 -102 15 l-42 0 49 -65 c58 -76 63 -92 58 -174 -1 -34 0 -61 3 -61 13 0 72 74 86 107 11 27 11 42 2 76 -6 23 -16 48 -21 55 -6 6 -7 12 -4 12 15 0 71 -33 79 -46 4 -8 13 -14 18 -14 26 0 158 -70 168 -89 17 -30 -2 -61 -37 -61 -26 -1 -26 -1 -8 -15 32 -24 79 -19 108 13 34 35 43 72 28 116 -17 53 -26 56 -102 39 -52 -12 -76 -13 -105 -4 l-38 11 39 -5 c22 -2 71 3 110 12 130 29 247 1 346 -85 43 -36 48 -31 26 23 -28 66 -84 104 -199 136 l-72 20 80 -5 c44 -3 109 -14 145 -25 35 -11 65 -19 67 -18 1 2 -11 20 -28 40 -59 71 -104 80 -259 48z"/>
</g>
</svg>
